<svg xmlns="http://www.w3.org/2000/svg" viewBox="0 0 64.38 41.68"><defs><style>.cls-1{fill:#fff;stroke:#221e20;stroke-miterlimit:10;stroke-width:0.25px;}.cls-2{fill:#31733e;}.cls-3{fill:#fde14d;}.cls-4{fill:#e28738;}.cls-5{fill:#e294b8;}.cls-6{fill:#d02e27;}.cls-7{fill:#69ab54;}</style></defs><g id="Layer_2" data-name="Layer 2"><g id="Layer_1-2" data-name="Layer 1"><path class="cls-1" d="M58.83.12v40h5.43V.12Z"/><path class="cls-1" d="M.12.12v40H5.55V.12Z"/><path class="cls-2" d="M17.12,31.54c1.78,0,4.19,2.57,2.29,4.24S19,40,17.23,40.07,14.4,38,15.39,36,15.33,31.57,17.12,31.54Z"/><path class="cls-2" d="M17.55,2c1.63,0,1.1,1.51,2.07,4.37s-.26,4.42-1.89,4.45S12.55,6.23,15.47,6,15.91,2.07,17.55,2Z"/><path class="cls-3" d="M22.8,40c-1-.09-1.8-3.24-1.91-4.79-.13-1,.95-1.9.92-4.21s.85-1.49-.07-5.33-1-4.08-1.07-7,.78-6.8-.12-9.31-.05-3,1.75-7S25,2,27.35,4.56s1.77,1.35,1.92,5.62-1.78,4.73-.85,9.63a28.62,28.62,0,0,1,.15,11.1c-.51,3-.16,5,.11,8s-1.41,1-2.28,1S23.78,40.07,22.8,40Z"/><path class="cls-4" d="M49.73,4.26a3.81,3.81,0,0,0,1.13,2.65A3.88,3.88,0,0,0,49.8,9.59a3.81,3.81,0,0,0,1.13,2.65A3.79,3.79,0,0,0,51,17.57a3.79,3.79,0,0,0,.07,5.33,3.82,3.82,0,0,0,.07,5.33,3.82,3.82,0,0,0,.07,5.33,3.87,3.87,0,0,0-1.05,2.68,4,4,0,0,0,8-.1A3.86,3.86,0,0,0,57,33.49,3.82,3.82,0,0,0,57,28.16a3.82,3.82,0,0,0-.07-5.33,3.82,3.82,0,0,0-.08-5.34,3.79,3.79,0,0,0-.07-5.33,3.79,3.79,0,0,0-.07-5.33,3.86,3.86,0,0,0,1.06-2.68,4,4,0,0,0-8,.11Z"/><path class="cls-5" d="M7.79,1.64A2.39,2.39,0,0,0,6.57,5L8.88,9.32,7.19,13.94a2.35,2.35,0,0,0-.14,2.44l2.31,4.34L7.46,25.9a2.33,2.33,0,0,0-.1,2.38l2.31,4.34-1.9,5.19A2.48,2.48,0,0,0,9.47,41a2.77,2.77,0,0,0,3.43-1.56l2-5.54a1.84,1.84,0,0,0,.11-.36,2.36,2.36,0,0,0,0-2.19l-2.27-4.26L14.63,22c0-.12.08-.23.11-.36a2.39,2.39,0,0,0,0-2.18l-2.27-4.25,1.69-4.63a2.92,2.92,0,0,0,.11-.36,2.36,2.36,0,0,0,0-2.18L11.44,2.74A2.9,2.9,0,0,0,7.79,1.64Z"/><path class="cls-2" d="M18,20.73c1.71,0,1.47,1.77,2.43,4.11s-.61,4.36-2.31,4.38S13,26.88,14.94,25,16.27,20.75,18,20.73Z"/><path class="cls-2" d="M17.66,11.33c1.75,0,2.48,1.34,2.25,3.76s-.39,4.57-2.14,4.6-2.59-1.64-3.22-4.15A3.32,3.32,0,0,1,17.66,11.33Z"/><path class="cls-6" d="M46.48,34.12c0-.14,0-.29-.08-.43a2,2,0,0,0,1.69.78c1.66-.23,2.45-3.61,1.78-7.55a14.11,14.11,0,0,0-1.71-4.85,14,14,0,0,0-.06-4.82,16.93,16.93,0,0,0-.73-2.81c1.35-.72,2-3.83,1.34-7.41C48,3.1,46.15.09,44.5.33c-1.16.16-1.89,1.86-2,4.21-.49-1.06-1.2-1.73-2-1.71C39.09,2.84,38,5.06,38,7.77s1.21,4.89,2.63,4.87c1.13,0,2.07-1.41,2.39-3.35.13.49.27,1,.43,1.4-1.35.72-2,3.83-1.34,7.41A14.1,14.1,0,0,0,43.82,23a14,14,0,0,0,.06,4.81c0,.14,0,.29.08.43a2,2,0,0,0-1.69-.78c-1.66.23-2.45,3.61-1.78,7.54s2.56,6.94,4.22,6.71S47.15,38.06,46.48,34.12Z"/><path class="cls-7" d="M34.82,39.64c-1.43,1.11-2.49-1.43-2.83-2.85-.21-.72,0-.91-.65-8.08-1.13-4.27-1.64-3-.79-6.07s1.24-3.08.65-5.9-1.66-4.7-1.68-6.43,2.14-1.67,2.1-4.67,1-2.82,3.83-4.49.64,1.61,1.39,4.41,1,1.46,1,4-1,1.64-1,3.28,2,1.6,2,3.78-2.48,3.12-.94,3.55S40,23.85,40,24.41s-1.86,2.4-.84,4.18A5.62,5.62,0,0,1,39.19,34c-.86,1.39.28,1,.92,2.63s-.25,1.54-1.86,2.09S36.62,38.26,34.82,39.64Z"/></g></g></svg>