<svg xmlns="http://www.w3.org/2000/svg" viewBox="0 0 619.54 55.91"><defs><style>.cls-1{fill:#007136;stroke:#221e20;stroke-miterlimit:10;stroke-width:0.75px;}</style></defs><g id="Layer_2" data-name="Layer 2"><g id="Layer_1-2" data-name="Layer 1"><path class="cls-1" d="M535.15,30.56c0-14.23,25.82-33.15,42-17.84,16.19,15.5,42,3.61,42,17.84S597.89,52.91,578.43,44.8,535.15,44.8,535.15,30.56Z"/><path class="cls-1" d="M350,23.14c0-14.66,17.89-12.44,41.51-20.42S435,8.48,435,23.14s-24.16,43.05-42.61,26.53C374.17,33.16,350,37.8,350,23.14Z"/><path class="cls-1" d="M159.75,25.7c0-14.83,14.23-20.84,39.13-18.59s47.19,3.76,47.19,18.59-17.23,21.77-43.25,26.84C177,57.61,159.75,40.53,159.75,25.7Z"/><path class="cls-1" d="M.38,25.46C.38,10.51,15.14,15.62,43,7.29,70.7-.85,85.66,10.51,85.66,25.46S39.88,71.83,38.59,45.14C37.11,18.46.38,40.41.38,25.46Z"/></g></g></svg>