<svg xmlns="http://www.w3.org/2000/svg" viewBox="0 0 550.81 85.07"><defs><style>.cls-1{fill:#007136;stroke:#221e20;stroke-miterlimit:10;stroke-width:1.05px;}</style></defs><g id="Layer_2" data-name="Layer 2"><g id="Layer_1-2" data-name="Layer 1"><path class="cls-1" d="M432.13,43c0-20,36.32-46.63,59.08-25.09C514,39.69,550.29,23,550.29,43S520.37,74.4,493,63,432.13,63,432.13,43Z"/><path class="cls-1" d="M282.9,32.54c0-20.62,25.16-17.49,58.37-28.71s61.22,8.09,61.22,28.71-34,60.54-59.93,37.31C316.88,46.63,282.9,53.15,282.9,32.54Z"/><path class="cls-1" d="M140.93,42.59c0-20.86,20-29.31,55-26.14s66.35,5.28,66.35,26.14S238.1,73.21,201.49,80.34C165.16,87.47,140.93,63.44,140.93,42.59Z"/><path class="cls-1" d="M.53,42.25c0-21,20.76-13.84,60-25.55,38.94-11.45,60,4.52,60,25.55s-64.38,65.22-66.2,27.68C52.18,32.4.53,63.28.53,42.25Z"/></g></g></svg>