<svg xmlns="http://www.w3.org/2000/svg" viewBox="0 0 550.04 109.12"><defs><style>.cls-1{fill:#ef8218;stroke:#221e20;stroke-miterlimit:10;stroke-width:1.05px;}</style></defs><g id="Layer_2" data-name="Layer 2"><g id="Layer_1-2" data-name="Layer 1"><path class="cls-1" d="M54.29,108.6A53.61,53.61,0,0,0,91.08,93.86a53.28,53.28,0,0,0,73.58,0,53.27,53.27,0,0,0,73.57,0,53.28,53.28,0,0,0,73.58,0,53.27,53.27,0,0,0,73.57,0,53.28,53.28,0,0,0,73.58,0,53.61,53.61,0,0,0,36.79,14.74c29.58,0,53.76-24.31,53.76-54s-24.18-54-53.76-54A53.64,53.64,0,0,0,459,15.26a53.31,53.31,0,0,0-73.58,0,53.3,53.3,0,0,0-73.57,0,53.31,53.31,0,0,0-73.58,0,53.3,53.3,0,0,0-73.57,0,53.31,53.31,0,0,0-73.58,0A53.64,53.64,0,0,0,54.29.53C24.71.53.53,24.83.53,54.56A53.88,53.88,0,0,0,54.29,108.6Z"/></g></g></svg>