<svg xmlns="http://www.w3.org/2000/svg" viewBox="0 0 560.62 111.97"><defs><style>.cls-1{fill:#ec8ab7;stroke:#221e20;stroke-miterlimit:10;stroke-width:1.05px;}</style></defs><g id="Layer_2" data-name="Layer 2"><g id="Layer_1-2" data-name="Layer 1"><path class="cls-1" d="M3.94,91.45A34.91,34.91,0,0,0,50.69,108l61.47-29.07L177,101.82a35.35,35.35,0,0,0,34.25,2.27L272.77,75l72.54,25.73a35.21,35.21,0,0,0,33.49,1.73l61.48-29.06,72.8,25.73A35.1,35.1,0,1,0,536.65,33L459,5.61a37.26,37.26,0,0,0-5.12-1.43,35.73,35.73,0,0,0-30.7-.37L362.76,32.39,291.24,7a38.73,38.73,0,0,0-5.12-1.43,35.73,35.73,0,0,0-30.7-.37L195.25,33.74,130.37,10.8a38.73,38.73,0,0,0-5.12-1.43A35.75,35.75,0,0,0,94.56,9L20,44.37A35.86,35.86,0,0,0,3.94,91.45Z"/></g></g></svg>