<svg xmlns="http://www.w3.org/2000/svg" viewBox="0 0 470.86 76.96"><defs><style>.cls-1{fill:#e33012;stroke:#221e20;stroke-miterlimit:10;}</style></defs><g id="Layer_2" data-name="Layer 2"><g id="Layer_1-2" data-name="Layer 1"><path class="cls-1" d="M146.61,75.17c45,0,81.51-11.75,81.51-26.24s-36.49-26.24-81.51-26.24S65.1,34.43,65.1,48.93,101.6,75.17,146.61,75.17Z"/><path class="cls-1" d="M328.68,53.78c44.79,0,81.11-11.93,81.11-26.64S373.47.5,328.68.5s-81.12,11.93-81.12,26.64S283.88,53.78,328.68,53.78Z"/><rect class="cls-1" x="454.24" y="3.24" width="16.13" height="16.13" transform="translate(473.61 -450.99) rotate(90)"/><rect class="cls-1" x="429.94" y="27.44" width="15.53" height="15.53" transform="translate(472.91 -402.51) rotate(90)"/><rect class="cls-1" x="31.46" y="63.74" width="8.09" height="17.34" transform="translate(107.92 36.91) rotate(90)"/><rect class="cls-1" x="34.02" y="10.55" width="14.37" height="9.8" transform="translate(56.65 -25.75) rotate(90)"/><rect class="cls-1" x="-7.66" y="40.05" width="28.06" height="11.73" transform="translate(52.28 39.55) rotate(90)"/></g></g></svg>