<svg xmlns="http://www.w3.org/2000/svg" viewBox="0 0 512.98 101.85"><defs><style>.cls-1{fill:#6db659;stroke:#221e20;stroke-miterlimit:10;stroke-width:0.75px;}</style></defs><g id="Layer_2" data-name="Layer 2"><g id="Layer_1-2" data-name="Layer 1"><path class="cls-1" d="M14.53,67.12a3.92,3.92,0,0,0-1.15,2.61,4.08,4.08,0,0,0,2.34,3.54c2.74,1.45,7,1.39,9.88.27,1.71-.67,3.24-2,5.07-2A12.65,12.65,0,0,0,18.4,65.37,6.64,6.64,0,0,0,14.53,67.12Z"/><path class="cls-1" d="M1.86,44.73A3.24,3.24,0,0,0,.43,47.88a4.44,4.44,0,0,0,2,2.43,12.44,12.44,0,0,0,4.85,2.32c2,.31,4,0,5.79,1.33l.29-2.79a4,4,0,0,0,0-1.33c-.46-2-2.88-4.28-4.69-5.19C6.58,43.61,3.85,43.27,1.86,44.73Z"/><path class="cls-1" d="M506.57,52a11.74,11.74,0,0,1,6,11.11,4.65,4.65,0,0,1-6.45,3.71,8.43,8.43,0,0,1-3.82-3.87c-2-3.59-2.87-7.94-5.9-10.71-.27-.25-.58-.62-.39-.93a.75.75,0,0,1,.35-.26C499.66,49.54,503.48,50.31,506.57,52Z"/><path class="cls-1" d="M471.07,53.73C482.8,67.6,455.12,77.6,439.72,80.67c-7.88,1.93-9.89,0-87.62,5.32-46.38,10.48-33.18,15.48-65.81,6.93S253.11,80.67,222.5,86c-30.43,5.32-51.15,15.48-69.84,15.48s-17.78-20.8-50.23-20.8S72,71.15,54.4,43.25s17.6-6,48-12.9,15.95-9.68,43.44-9.68,17.6,9.68,35.38,9.68S198.85,11,222.5,11s33.36,24.36,38.31,9.52S301,2.29,307,2.29c5.86,0,25.66,18.22,45.09,8.54,19.43-9.51,44.18-8.54,59,0s10.81-2.58,28.59-8.54,16.69,2.58,22.37,18.22C468,36,456.41,36.15,471.07,53.73Z"/></g></g></svg>