<svg xmlns="http://www.w3.org/2000/svg" viewBox="0 0 597.59 143.22"><defs><style>.cls-1{fill:#6db759;stroke:#221e20;stroke-miterlimit:10;stroke-width:1.05px;}</style></defs><g id="Layer_2" data-name="Layer 2"><g id="Layer_1-2" data-name="Layer 1"><path class="cls-1" d="M593.1,75.56c16.5,19.51-22.43,33.57-44.08,37.88-11.09,2.72-13.93,0-123.23,7.48-65.22,14.74-46.65,21.77-92.54,9.75s-46.66-17.23-89.71-9.75c-42.79,7.49-71.92,21.77-98.22,21.77s-25-29.25-70.63-29.25S31.9,100.06,7.15,60.82,31.9,52.43,74.69,42.68s22.43-13.61,61.1-13.61,24.74,13.61,49.75,13.61,24.75-27.22,58-27.22,46.92,34.25,53.88,13.38,56.45-25.63,65-25.63c8.25,0,36.09,25.63,63.41,12,27.33-13.38,62.13-12,83,0S524,11.6,549,3.21s23.45,3.63,31.45,25.63C588.71,50.61,572.47,50.84,593.1,75.56Z"/></g></g></svg>