<svg xmlns="http://www.w3.org/2000/svg" viewBox="0 0 606.24 133.62"><defs><style>.cls-1{fill:#ffdf05;stroke:#000;stroke-miterlimit:10;stroke-width:1.05px;}</style></defs><g id="Layer_2" data-name="Layer 2"><g id="Layer_1-2" data-name="Layer 1"><path class="cls-1" d="M595.47,101.11c-1.54,14.29-49.15,25.72-72.57,27-15.44,1.82-28.57-14.29-63.31-14.29s-22.39-12.73-80.55,0-61.77,14.29-105.78,14.29-102.42-12.73-140.51,0c-37.83,12.72-45.81,0-105.77-27S22.34,61.37,61.72,27.6C101.09-5.91,82.31,1.89,146.9.59c64.6-1.56,71,27,145.15,14.29s123-8.06,167.54,0,75.4,3.37,121.21,0,14.41,20.78,14.41,33.5S596.76,86.83,595.47,101.11Z"/></g></g></svg>