<svg xmlns="http://www.w3.org/2000/svg" viewBox="0 0 148.62 419.36"><defs><style>.cls-1{fill:#fff;}</style></defs><g id="Layer_2" data-name="Layer 2"><g id="Layer_1-2" data-name="Layer 1"><path class="cls-1" d="M60.52,415.42H36.26V155.56S-16.43,134.39,5.22,1H10S11.2,82.59,24.32,82.16C36.18,81.77,34.54.78,34.54.78l7.81,0S40.11,82.15,53.23,81.29C67.2,80.38,66.16,0,66.16,0h4.46S99.9,101.54,55.21,154.87C55.21,154.87,60.68,417.24,60.52,415.42Z"/><path class="cls-1" d="M148.05,213.09c0-.77,0-1.53-.08-2.3-.08-1.51-.57-2.86-.58-4.42,0-2.86,0-5.72-.07-8.58l-.21-25.12-.56-67.89-.77-93.2S142.22-.11,132.28.12c0,0-9.55-1.78-15.55,16-.37,1.1-.59,2.29-.86,3.42q-1.22,5-2.27,10.06c-2.64,12.59-4.74,25.29-6.48,38q-4,29.11-5.37,58.5-.75,15.21-.85,30.44,0,3.93,0,7.86c0,1.39,0,2.79,0,4.18a11.41,11.41,0,0,0,.07,1.85,20.28,20.28,0,0,1,.05,3.12V198a1.73,1.73,0,0,0,.28,1.24,1.47,1.47,0,0,0,1,.35c.67,0,1.34.1,2,.09s1.23.08,1.83.14c.41.05.8.19,1.2.23s.7,0,1.06.09c.65.1,1.29,0,2,.12s1.31.19,2,.29c.42.07.86.09,1.28.17a4.12,4.12,0,0,0,.59.12,13.08,13.08,0,0,1,2.57.39c.27.07.55.05.81.12a1.88,1.88,0,0,1,.54.29,8,8,0,0,0,1.53.56,15.67,15.67,0,0,1,3.2,1.46,9,9,0,0,1,3.22,3.28,10.66,10.66,0,0,1,1,3.37c.26,1.23.81,2.38,1.06,3.62.52,2.55.83,5.18,1.17,7.77.3,2.21.46,4.42.86,6.62a39.34,39.34,0,0,1,.21,6.87V416.62c0,.23,0,.47,0,.7,0,.08,0,.16-.05.24a.88.88,0,0,1,0,.28c0,.15,0,.3-.06.45v.53c0,.18-.06.47.16.53a3.28,3.28,0,0,0,.63,0h11.71a7.8,7.8,0,0,0,1.08-.15,6.78,6.78,0,0,1,1.56,0,4.88,4.88,0,0,0,1.48,0l.9-.23.33-.07.14-.07c.05,0,.29.06.29,0v-7.21c.11-.1.06-.37.06-.5,0-.31-.07-.61-.07-.92,0-.14,0-.28,0-.42,0-.32-.06-.63-.07-1s0-.94,0-1.41c0-.31,0-.61-.06-.91a6.89,6.89,0,0,0,0-.79c-.16-1.08-.2-2.17-.36-3.25a11.61,11.61,0,0,1-.1-1.67c0-1.28,0-2.56,0-3.84V223.1C148,219.78,148.12,216.42,148.05,213.09Z"/></g></g></svg>